<svg width="366" height="63" viewBox="0 0 366 63" fill="none" xmlns="http://www.w3.org/2000/svg">
<path d="M142.516 38.4998L145.027 23.3726H153.802L153.596 24.6135H146.202L145.256 30.3084H152.185L151.978 31.5493H145.05L144.104 37.2589H151.646L151.439 38.4998H142.516Z" fill="#FFEB00"/>
<path d="M124.418 23.3726H126.013L129.322 36.5498H129.463L137.122 23.3726H138.718L136.206 38.4998H134.906L136.945 26.2902H136.827L129.684 38.4998H128.428L125.363 26.2902H125.245L123.206 38.4998H121.906L124.418 23.3726Z" fill="#FFEB00"/>
<path d="M106.496 38.4998L109.007 23.3726H113.89C114.963 23.3726 115.828 23.5646 116.482 23.9487C117.142 24.3328 117.598 24.8671 117.849 25.5515C118.105 26.2311 118.162 27.014 118.019 27.9004C117.871 28.7769 117.556 29.5525 117.073 30.2271C116.596 30.9017 115.965 31.4311 115.182 31.8152C114.4 32.1943 113.476 32.3839 112.413 32.3839H108.261L108.476 31.1209H112.59C113.383 31.1209 114.062 30.9904 114.628 30.7294C115.195 30.4684 115.648 30.0966 115.988 29.614C116.327 29.1315 116.551 28.5602 116.66 27.9004C116.768 27.2356 116.731 26.657 116.549 26.1646C116.372 25.6722 116.042 25.2906 115.559 25.0197C115.082 24.7489 114.444 24.6135 113.646 24.6135H110.182L107.877 38.4998H106.496ZM114.296 31.6748L116.889 38.4998H115.301L112.752 31.6748H114.296Z" fill="#FFEB00"/>
<path d="M91.8584 38.4998L94.3698 23.3726H103.145L102.938 24.6135H95.5442L94.5987 30.3084H101.527L101.32 31.5493H94.3919L93.4465 37.2589H100.988L100.781 38.4998H91.8584Z" fill="#FFEB00"/>
<path d="M74.2139 38.4998L76.7252 23.3726H78.1065L76.9542 30.3084H85.5372L86.6894 23.3726H88.0707L85.5593 38.4998H84.1781L85.3303 31.5493H76.7474L75.5951 38.4998H74.2139Z" fill="#FFEB00"/>
<path d="M60.2261 38.4998L62.7374 23.3726H64.1187L61.8141 37.2589H69.0232L68.8164 38.4998H60.2261Z" fill="#FFEB00"/>
<path d="M56.4278 23.3726L53.9164 38.4998H52.5352L55.0465 23.3726H56.4278Z" fill="#FFEB00"/>
<path d="M47.3623 23.3726H48.7436L47.089 33.3885C46.9167 34.4176 46.5227 35.3385 45.9072 36.151C45.2917 36.9585 44.5137 37.5962 43.5731 38.064C42.6375 38.5269 41.601 38.7584 40.4635 38.7584C39.3309 38.7584 38.3731 38.5245 37.5902 38.0566C36.8072 37.5888 36.2409 36.9512 35.8913 36.1436C35.5417 35.336 35.4531 34.4176 35.6254 33.3885L37.2799 23.3726H38.6612L37.014 33.2924C36.886 34.0951 36.9476 34.8116 37.1987 35.4419C37.4498 36.0673 37.8684 36.5597 38.4544 36.9191C39.0453 37.2786 39.779 37.4584 40.6555 37.4584C41.537 37.4584 42.3347 37.2786 43.0487 36.9191C43.7676 36.5597 44.3585 36.0673 44.8214 35.4419C45.2892 34.8116 45.5896 34.0951 45.7226 33.2924L47.3623 23.3726Z" fill="#FFEB00"/>
<path d="M29.2362 28.1001C29.187 27.5929 29.0737 27.1202 28.8964 26.6819C28.7192 26.2387 28.4705 25.8522 28.1504 25.5223C27.8303 25.1923 27.4339 24.9338 26.9612 24.7467C26.4934 24.5596 25.9419 24.466 25.3067 24.466C24.3661 24.466 23.4552 24.7147 22.5737 25.212C21.6972 25.7094 20.9364 26.4406 20.2913 27.4058C19.6512 28.366 19.2154 29.5429 18.9839 30.9365C18.7574 32.3005 18.7796 33.4651 19.0504 34.4302C19.3213 35.3954 19.8014 36.134 20.4908 36.6461C21.1802 37.1533 22.0394 37.4069 23.0686 37.4069C23.9944 37.4069 24.8561 37.2001 25.6538 36.7865C26.4516 36.3679 27.1237 35.7745 27.6703 35.0064C28.2169 34.2382 28.5714 33.3272 28.7339 32.2734L29.1476 32.4137H24.3021L24.5311 31.1728H30.2703L30.0413 32.4137C29.8345 33.7088 29.3938 34.8266 28.7192 35.7672C28.0446 36.7077 27.2074 37.434 26.2078 37.9461C25.2082 38.4533 24.1199 38.7069 22.943 38.7069C21.6233 38.7069 20.5203 38.3893 19.6339 37.7541C18.7525 37.1139 18.1345 36.2128 17.78 35.0507C17.4254 33.8886 17.3811 32.5172 17.647 30.9365C17.8341 29.7497 18.1641 28.6787 18.6368 27.7234C19.1095 26.7681 19.6906 25.9531 20.38 25.2785C21.0743 24.599 21.8474 24.077 22.6993 23.7126C23.5561 23.3482 24.4622 23.166 25.4175 23.166C26.2447 23.166 26.9809 23.2965 27.626 23.5575C28.2711 23.8185 28.8177 24.1779 29.2658 24.6359C29.7139 25.0889 30.0536 25.6134 30.2851 26.2092C30.5214 26.8001 30.6446 27.4304 30.6544 28.1001H29.2362Z" fill="#FFEB00"/>
<path d="M337.677 38.4998H334.25L341.984 23.3726H346.105L348.809 38.4998H345.381L343.542 26.8294H343.424L337.677 38.4998ZM338.46 32.5538H346.556L346.127 35.0504H338.032L338.46 32.5538Z" fill="#FFEB00"/>
<path d="M322.229 26.0095L322.672 23.3726H335.096L334.652 26.0095H330.021L327.953 38.4998H324.792L326.86 26.0095H322.229Z" fill="#FFEB00"/>
<path d="M314.798 27.7677C314.822 27.1522 314.642 26.677 314.258 26.3422C313.879 26.0073 313.305 25.8399 312.537 25.8399C312.015 25.8399 311.562 25.9137 311.178 26.0615C310.794 26.2043 310.486 26.4037 310.255 26.6598C310.028 26.9109 309.888 27.2014 309.834 27.5314C309.78 27.8022 309.797 28.0386 309.886 28.2404C309.979 28.4423 310.124 28.6172 310.321 28.7649C310.523 28.9077 310.762 29.0333 311.038 29.1416C311.314 29.245 311.607 29.3336 311.917 29.4075L313.217 29.7325C313.852 29.8802 314.423 30.0772 314.93 30.3234C315.443 30.5696 315.871 30.8725 316.216 31.2319C316.565 31.5914 316.812 32.0149 316.954 32.5024C317.097 32.9899 317.117 33.5488 317.013 34.1791C316.856 35.1048 316.489 35.9075 315.913 36.587C315.337 37.2617 314.581 37.7861 313.645 38.1603C312.71 38.5297 311.626 38.7143 310.395 38.7143C309.174 38.7143 308.142 38.5272 307.3 38.1529C306.458 37.7787 305.845 37.2247 305.461 36.491C305.082 35.7524 304.969 34.8389 305.121 33.7507H308.216C308.162 34.2579 308.236 34.6814 308.438 35.0211C308.645 35.356 308.952 35.6096 309.361 35.7819C309.77 35.9493 310.25 36.0331 310.802 36.0331C311.348 36.0331 311.833 35.9543 312.257 35.7967C312.685 35.6391 313.032 35.42 313.298 35.1393C313.564 34.8586 313.727 34.5361 313.786 34.1717C313.845 33.8319 313.793 33.5463 313.63 33.3149C313.468 33.0834 313.207 32.8865 312.848 32.724C312.493 32.5565 312.052 32.4088 311.525 32.2808L309.945 31.8672C308.723 31.5569 307.8 31.0719 307.175 30.412C306.549 29.7522 306.325 28.8634 306.503 27.7456C306.66 26.8297 307.042 26.0295 307.648 25.345C308.258 24.6556 309.026 24.1213 309.952 23.7422C310.883 23.3581 311.9 23.166 313.003 23.166C314.125 23.166 315.073 23.3605 315.846 23.7495C316.619 24.1336 317.183 24.6704 317.538 25.3598C317.892 26.0492 318.001 26.8518 317.863 27.7677H314.798Z" fill="#FFEB00"/>
<path d="M302.411 23.3726L299.899 38.4998H296.701L299.213 23.3726H302.411Z" fill="#FFEB00"/>
<path d="M293.737 28.6689H290.546C290.556 28.2454 290.502 27.8711 290.383 27.5461C290.265 27.2162 290.088 26.9355 289.852 26.7041C289.62 26.4726 289.337 26.2978 289.002 26.1797C288.667 26.0565 288.291 25.995 287.872 25.995C287.065 25.995 286.323 26.1969 285.649 26.6007C284.974 27.0045 284.405 27.5904 283.943 28.3586C283.48 29.1219 283.16 30.0452 282.982 31.1285C282.81 32.1725 282.82 33.0465 283.012 33.7507C283.204 34.4548 283.544 34.9867 284.031 35.3461C284.524 35.7007 285.137 35.8779 285.87 35.8779C286.323 35.8779 286.754 35.8213 287.163 35.7081C287.572 35.5899 287.944 35.4225 288.278 35.2058C288.618 34.9842 288.914 34.7158 289.165 34.4007C289.421 34.0855 289.62 33.7285 289.763 33.3297H292.976C292.774 34.024 292.459 34.6937 292.031 35.3387C291.607 35.9838 291.083 36.56 290.457 37.0672C289.832 37.5694 289.12 37.9683 288.323 38.2637C287.525 38.5592 286.651 38.7069 285.701 38.7069C284.327 38.7069 283.147 38.3918 282.162 37.7615C281.183 37.1312 280.476 36.2226 280.043 35.0359C279.609 33.8492 279.528 32.4187 279.799 30.7444C280.07 29.1243 280.599 27.7505 281.387 26.6228C282.18 25.4903 283.142 24.631 284.275 24.045C285.412 23.459 286.629 23.166 287.924 23.166C288.825 23.166 289.64 23.2891 290.369 23.5353C291.098 23.7815 291.718 24.141 292.23 24.6137C292.747 25.0815 293.136 25.6552 293.397 26.3348C293.658 27.0143 293.771 27.7923 293.737 28.6689Z" fill="#FFEB00"/>
<path d="M263.749 38.4998L266.26 23.3726H276.453L276.01 26.0095H269.015L268.424 29.614H274.895L274.451 32.251H267.981L267.39 35.8629H274.414L273.971 38.4998H263.749Z" fill="#FFEB00"/>
<path d="M247.688 38.4998L250.2 23.3726H256.168C257.31 23.3726 258.251 23.5745 258.99 23.9782C259.733 24.382 260.255 24.9557 260.556 25.6993C260.861 26.4379 260.932 27.3095 260.77 28.314C260.602 29.3186 260.24 30.1803 259.684 30.8993C259.132 31.6182 258.413 32.1722 257.527 32.5612C256.646 32.9453 255.624 33.1373 254.462 33.1373H250.466L250.909 30.5669H254.381C254.991 30.5669 255.513 30.4832 255.946 30.3157C256.38 30.1483 256.722 29.8972 256.973 29.5623C257.229 29.2275 257.397 28.8114 257.475 28.314C257.559 27.8068 257.53 27.3834 257.387 27.0436C257.244 26.6989 256.985 26.4379 256.611 26.2606C256.237 26.0784 255.745 25.9873 255.134 25.9873H252.977L250.887 38.4998H247.688ZM256.995 31.6157L259.617 38.4998H256.087L253.546 31.6157H256.995Z" fill="#FFEB00"/>
<path d="M232.999 26.0095L233.442 23.3726H245.866L245.423 26.0095H240.792L238.723 38.4998H235.562L237.63 26.0095H232.999Z" fill="#FFEB00"/>
<path d="M216.483 38.4998L218.994 23.3726H229.187L228.744 26.0095H221.749L221.158 29.614H227.629L227.186 32.251H220.715L220.124 35.8629H227.149L226.706 38.4998H216.483Z" fill="#FFEB00"/>
<path d="M202.393 38.4998L204.904 23.3726H208.103L206.035 35.8629H212.52L212.077 38.4998H202.393Z" fill="#FFEB00"/>
<path d="M187.369 38.4998L189.881 23.3726H200.074L199.631 26.0095H192.636L192.045 29.614H198.515L198.072 32.251H191.602L191.011 35.8629H198.035L197.592 38.4998H187.369Z" fill="#FFEB00"/>
<path d="M178.072 9.23535L169.614 20H180.812L169.812 33H180.237L164.164 57.1094L160.836 54.8906L172.763 37H161.188L172.188 24H161.385L174.928 6.76465L178.072 9.23535Z" fill="#FFEB00"/>
<path d="M366 0V63H0V0H366ZM4 59H362V4H4V59Z" fill="#FFEB00"/>
</svg>


