<?xml version="1.0" encoding="UTF-8"?>
<svg id="Camada_2" data-name="Camada 2" xmlns="http://www.w3.org/2000/svg" viewBox="0 0 313.38 333.61">
  <defs>
    <style>
      .cls-1 {
        fill: #e77009;
      }

      .cls-2 {
        fill: #ffffff;
      }
    </style>
  </defs>
  <g id="Camada_1-2" data-name="Camada 1">
    <path class="cls-2" d="M296.46,153.84v-30.26h-15.33v30.26h-23.8v-30.26h-15.33v30.26h-78.95l-10.9,51.64h81.66c-3.22,62.06-70.69,79.13-114.69,60.79C26,227.44,52.09,71.62,138,58.75c82.17-12.31,104.3,42.39,104.3,42.39l43.08-32.65s-19.42-45.79-90.05-63.39C61.63-28.21-29.77,107.94,8.96,225.84c38.36,116.77,186.21,144.36,246.96,54.55v47.71h57.46v-174.26h-16.92Z"/>
    <path class="cls-1" d="M157.24,97.47l-48.91,78.91c-1.21,1.94.19,4.46,2.48,4.46h33.37l-20.53,53.86c-1.16,3.04,2.78,5.41,4.93,2.96l71.03-81.37c1.63-1.87.34-4.79-2.14-4.84l-28.25-.58,31.69-50.3c1.22-1.94-.17-4.48-2.47-4.48h-38.71c-1.01,0-1.95.52-2.48,1.38Z"/>
  </g>
</svg>